<?xml version="1.0" encoding="UTF-8" standalone="no"?>
<svg width="1200" height="500" viewBox="0 0 1200 500" xmlns="http://www.w3.org/2000/svg">
  <!-- background -->
  <rect x="0" y="0" width="1200" height="500" fill="#f2f8ff"/>
  <!-- tank outline -->
  <rect x="50" y="40" width="1100" height="420" rx="6" ry="6" fill="#eef6ff" stroke="#1f3b4f" stroke-width="4"/>
  <!-- waterline -->
  <line x1="50" y1="80" x2="1150" y2="80" stroke="#bde1ff" stroke-width="2" stroke-dasharray="4 4"/>
  <!-- rock cave (left) -->
  <rect x="150" y="260" width="200" height="140" rx="12" fill="#d9d0c3" stroke="#9f8f7f"/>
  <text x="200" y="420" font-size="14" fill="#333">Rock Cave</text>
  <!-- roots -->
  <path d="M270 240 C220 160, 180 120, 140 80" stroke="#6b3f28" stroke-width="18" stroke-linecap="round" fill="none"/>
  <path d="M420 260 C480 200, 580 160, 640 140" stroke="#5b3a28" stroke-width="14" stroke-linecap="round" fill="none"/>
  <path d="M820 270 C880 220, 940 200, 980 180" stroke="#5b3a28" stroke-width="16" stroke-linecap="round" fill="none"/>
  <!-- filter positions -->
  <circle cx="90" cy="380" r="10" fill="#888" />
  <text x="110" y="386" font-size="12" fill="#333">Eheim (left back)</text>
  <circle cx="1100" cy="380" r="10" fill="#444"/>
  <text x="880" y="388" font-size="12" fill="#333">Bioflow (right back)</text>
  <!-- plants -->
  <g fill="#74a76b">
    <ellipse cx="350" cy="350" rx="40" ry="18"/>
    <ellipse cx="980" cy="360" rx="55" ry="22"/>
    <ellipse cx="640" cy="300" rx="35" ry="12"/>
  </g>
</svg>